<svg width="200" height="200" viewBox="0 0 200 200" fill="none" xmlns="http://www.w3.org/2000/svg">
  <defs>
    <linearGradient id="atalantaBlackBlue" x1="0" y1="0" x2="200" y2="0" gradientUnits="userSpaceOnUse">
      <stop offset="0%" stop-color="#000000" />
      <stop offset="100%" stop-color="#1e3a8a" />
    </linearGradient>
    <filter id="shadow" x="-10%" y="-10%" width="120%" height="120%">
      <feDropShadow dx="2" dy="4" stdDeviation="4" flood-color="#000000" flood-opacity="0.25"/>
    </filter>
  </defs>
  
  <!-- Oval Shape -->
  <ellipse cx="100" cy="100" rx="60" ry="80" fill="#ffffff" filter="url(#shadow)" stroke="#000000" stroke-width="4"/>
  
  <!-- Abstract Head Profile -->
  <path d="M80 60 C90 50 120 50 130 70 C135 90 120 110 120 130 H80 V60 Z" fill="#000000"/>
  
  <!-- Stripes (Bottom) -->
  <path d="M60 140 H140 V160 C140 170 120 180 100 180 C80 180 60 170 60 160 V140 Z" fill="url(#atalantaBlackBlue)"/>
  <path d="M70 140 V175 M90 140 V180 M110 140 V180 M130 140 V175" stroke="#1e40af" stroke-width="4"/>
  
  <!-- Text -->
  <text x="100" y="45" font-family="Arial, sans-serif" font-weight="bold" font-size="12" fill="#000000" text-anchor="middle">ACE</text>
</svg>
